<?xml version="1.0" encoding="UTF-8"?>
<svg id="Layer_1" data-name="Layer 1" xmlns="http://www.w3.org/2000/svg" viewBox="0 0 1920 1080">
  <defs>
    <style>
      .cls-1 {
        fill: #012b3a;
      }

      .cls-2 {
        fill: #763843;
      }
    </style>
  </defs>
  <g>
    <path class="cls-1" d="m1080.96,681.87v30.94c0,7.56-6.13,13.68-13.68,13.68h-197.54c-7.56,0-13.68-6.13-13.68-13.68v-345.62c0-7.56,6.13-13.68,13.68-13.68h31.17c7.56,0,13.68,6.13,13.68,13.68v287.31c0,7.56,6.13,13.68,13.68,13.68h139c7.56,0,13.68,6.13,13.68,13.68Z"/>
    <path class="cls-1" d="m1141.39,353.51h31.17c7.56,0,13.68,6.13,13.68,13.68v345.62c0,7.56-6.13,13.68-13.68,13.68h-31.17c-7.56,0-13.68-6.13-13.68-13.68v-345.62c0-7.56,6.13-13.68,13.68-13.68Z"/>
    <path class="cls-1" d="m1482.87,681.87v30.94c0,7.56-6.13,13.68-13.68,13.68h-197.54c-7.56,0-13.68-6.13-13.68-13.68v-345.62c0-7.56,6.13-13.68,13.68-13.68h31.17c7.56,0,13.68,6.13,13.68,13.68v287.31c0,7.56,6.13,13.68,13.68,13.68h139c7.56,0,13.68,6.13,13.68,13.68Z"/>
    <path class="cls-1" d="m1565.47,726.49h-41.84c-10.03,0-16.65-10.97-12.38-20.51l153.95-344.21c4.91-10.97,19.73-11.03,24.72-.1l157,344.21c4.36,9.55-2.26,20.61-12.34,20.61h-269.11Zm193.44-74.67l-67.18-145.95c-4.88-10.61-19.96-10.62-24.85,0l-67.29,145.95c-4.18,9.07,2.44,19.41,12.43,19.41h134.47c9.98,0,16.6-10.34,12.43-19.4Z"/>
    <path class="cls-1" d="m543.83,726.49h-41.84c-10.03,0-16.65-10.97-12.38-20.51l153.95-344.21c4.91-10.97,19.73-11.03,24.72-.1l157,344.21c4.36,9.55-2.26,20.61-12.34,20.61h-269.11Zm193.44-78.5l-67.18-153.44c-4.88-11.16-19.96-11.16-24.85,0l-67.29,153.44c-4.18,9.53,2.44,20.41,12.43,20.41h134.47c9.98,0,16.6-10.87,12.43-20.4Z"/>
  </g>
  <g>
    <path class="cls-2" d="m168.69,482.29l30.01,9.04c8.46,2.55,16.36-5.34,13.82-13.81l-8.97-29.87c-2.41-8.01-12.48-10.58-18.43-4.69l-21.04,20.83c-5.98,5.92-3.45,16.07,4.61,18.5Z"/>
    <path class="cls-2" d="m351.8,597.13l-31.64-9.93c-8.54-2.68-16.58,5.35-13.9,13.9l9.77,31.21c2.47,7.89,12.39,10.4,18.32,4.64l21.87-21.29c6.02-5.86,3.6-16.02-4.41-18.53Z"/>
    <path class="cls-2" d="m258.21,353.51c-103,0-186.49,83.5-186.49,186.49s83.5,186.49,186.49,186.49,186.49-83.5,186.49-186.49-83.5-186.49-186.49-186.49Zm-133.22,121.19l71.07-71.07c5.95-5.95,16.11-3.36,18.48,4.72l29.24,99.61c2.46,8.38-5.28,16.18-13.68,13.79l-100.31-28.54c-8.14-2.32-10.79-12.53-4.81-18.51Zm125.28,205.37c0,6.13-4.97,11.09-11.09,11.09h-.63c-6.12,0-11.09-4.97-11.09-11.09v-97.53c0-6.13-4.97-11.09-11.09-11.09h-93.18c-6.13,0-11.09-4.97-11.09-11.09s4.97-11.09,11.09-11.09h115.99c6.12,0,11.09,4.97,11.09,11.09v119.71Zm145.37-74.68l-71.36,71.37c-5.92,5.92-16.02,3.4-18.45-4.62l-30.88-101.55c-2.57-8.45,5.28-16.36,13.75-13.86l102.25,30.18c8.07,2.38,10.65,12.53,4.7,18.48Zm1.06-74.67h-115.99c-6.13,0-11.09-4.97-11.09-11.09v-119.71c0-6.13,4.97-11.09,11.09-11.09h.63c6.12,0,11.09,4.97,11.09,11.09v97.53c0,6.13,4.97,11.09,11.09,11.09h93.18c6.13,0,11.09,4.97,11.09,11.09h0c0,6.13-4.97,11.09-11.09,11.09Z"/>
  </g>
</svg>