<?xml version="1.0" encoding="UTF-8"?>
<svg id="Layer_1" data-name="Layer 1" xmlns="http://www.w3.org/2000/svg" viewBox="492 72 936 936">
  <defs>
    <style>
      .cls-1 {
        fill: #012b3a;
      }
    </style>
  </defs>
  <path class="cls-1" d="m734.86,394.87l75.48,22.73c21.29,6.41,41.15-13.44,34.76-34.73l-22.57-75.13c-6.05-20.15-31.39-26.6-46.34-11.79l-52.91,52.4c-15.03,14.88-8.67,40.43,11.58,46.53Z"/>
  <path class="cls-1" d="m1195.37,683.67l-79.58-24.97c-21.49-6.74-41.7,13.45-34.97,34.95l24.57,78.5c6.21,19.84,31.17,26.16,46.07,11.66l55.01-53.53c15.14-14.73,9.05-40.28-11.1-46.6Z"/>
  <path class="cls-1" d="m960,70.98c-259.03,0-469.02,209.99-469.02,469.02s209.99,469.02,469.02,469.02,469.02-209.99,469.02-469.02-209.99-469.02-469.02-469.02Zm-335.03,304.79l178.74-178.74c14.98-14.98,40.52-8.45,46.49,11.87l73.54,250.52c6.18,21.07-13.28,40.69-34.4,34.68l-252.28-71.78c-20.47-5.82-27.14-31.5-12.09-46.55Zm315.06,516.5c0,15.4-12.49,27.89-27.89,27.89h-1.57c-15.4,0-27.89-12.49-27.89-27.89v-245.28c0-15.4-12.49-27.89-27.89-27.89h-234.35c-15.4,0-27.89-12.49-27.89-27.89s12.49-27.89,27.89-27.89h291.7c15.4,0,27.89,12.49,27.89,27.89v301.06Zm365.6-187.81l-179.48,179.48c-14.89,14.89-40.28,8.54-46.41-11.61l-77.67-255.39c-6.46-21.24,13.29-41.15,34.58-34.87l257.15,75.91c20.29,5.99,26.79,31.51,11.83,46.47Zm2.67-187.78h-291.7c-15.4,0-27.89-12.49-27.89-27.89V187.73c0-15.4,12.49-27.89,27.89-27.89h1.57c15.4,0,27.89,12.49,27.89,27.89v245.28c0,15.4,12.49,27.89,27.89,27.89h234.35c15.4,0,27.89,12.49,27.89,27.89h0c0,15.4-12.49,27.89-27.89,27.89Z"/>
</svg>
